<?xml version="1.0" encoding="UTF-8" standalone="no"?>
<svg
   xmlns:dc="http://purl.org/dc/elements/1.1/"
   xmlns:cc="http://creativecommons.org/ns#"
   xmlns:rdf="http://www.w3.org/1999/02/22-rdf-syntax-ns#"
   xmlns:svg="http://www.w3.org/2000/svg"
   xmlns="http://www.w3.org/2000/svg"
   xmlns:sodipodi="http://sodipodi.sourceforge.net/DTD/sodipodi-0.dtd"
   xmlns:inkscape="http://www.inkscape.org/namespaces/inkscape"
   width="4in"
   height="2in"
   viewBox="0 0 101.6 50.8"
   version="1.1"
   id="svg8"
   inkscape:version="1.0.2 (e86c870879, 2021-01-15)"
   sodipodi:docname="infographic_estma_reports.svg">
  <defs
     id="defs2" />
  <sodipodi:namedview
     id="base"
     pagecolor="#ffffff"
     bordercolor="#666666"
     borderopacity="1.0"
     inkscape:pageopacity="0.0"
     inkscape:pageshadow="2"
     inkscape:zoom="2.8"
     inkscape:cx="292.92647"
     inkscape:cy="206.7014"
     inkscape:document-units="mm"
     inkscape:current-layer="layer1"
     inkscape:document-rotation="0"
     showgrid="false"
     units="in"
     width="40in"
     inkscape:window-width="1920"
     inkscape:window-height="2091"
     inkscape:window-x="0"
     inkscape:window-y="32"
     inkscape:window-maximized="0" />
  <metadata
     id="metadata5">
    <rdf:RDF>
      <cc:Work
         rdf:about="">
        <dc:format>image/svg+xml</dc:format>
        <dc:type
           rdf:resource="http://purl.org/dc/dcmitype/StillImage" />
        <dc:title></dc:title>
      </cc:Work>
    </rdf:RDF>
  </metadata>
  <g
     inkscape:label="Layer 1"
     inkscape:groupmode="layer"
     id="layer1">
    <g
       id="g80"
       transform="matrix(1.7767223,0,0,2.1460355,-0.86954363,1.5843421)">
      <path
         d="M 0,0 H 24 V 24 H 0 Z"
         fill="none"
         id="path66" />
      <path
         d="M 12,7 V 3 H 2 V 21 H 22 V 7 Z M 6,19 H 4 V 17 H 6 Z M 6,15 H 4 V 13 H 6 Z M 6,11 H 4 V 9 H 6 Z M 6,7 H 4 V 5 h 2 z m 4,12 H 8 v -2 h 2 z m 0,-4 H 8 v -2 h 2 z m 0,-4 H 8 V 9 h 2 z M 10,7 H 8 V 5 h 2 z m 10,12 h -8 v -2 h 2 v -2 h -2 v -2 h 2 V 11 H 12 V 9 h 8 z m -2,-8 h -2 v 2 h 2 z m 0,4 h -2 v 2 h 2 z"
         id="path68" />
    </g>
    <text
       xml:space="preserve"
       style="font-style:normal;font-weight:normal;font-size:10.5809px;line-height:1.25;font-family:sans-serif;fill:#000000;fill-opacity:1;stroke:none;stroke-width:0.264524"
       x="43.194389"
       y="14.082314"
       id="text84"
       transform="scale(1.0002241,0.99977595)"><tspan
         sodipodi:role="line"
         id="tspan82"
         x="43.194389"
         y="14.082314"
         style="font-style:normal;font-variant:normal;font-weight:normal;font-stretch:normal;font-family:Ubuntu;-inkscape-font-specification:Ubuntu;stroke-width:0.264524">ESTMA</tspan><tspan
         sodipodi:role="line"
         x="43.194389"
         y="27.813429"
         style="font-style:normal;font-variant:normal;font-weight:normal;font-stretch:normal;font-family:Ubuntu;-inkscape-font-specification:Ubuntu;stroke-width:0.264524"
         id="tspan86">Reports</tspan></text>
    <text
       xml:space="preserve"
       style="font-style:normal;font-weight:normal;font-size:12.4987px;line-height:1.25;font-family:sans-serif;fill:#000000;fill-opacity:1;stroke:none;stroke-width:0.312467"
       x="45.456932"
       y="41.403225"
       id="text96"
       transform="scale(0.92521111,1.0808344)"><tspan
         sodipodi:role="line"
         id="tspan94"
         x="45.456932"
         y="41.403225"
         style="stroke-width:0.312467">{{ estma_reports_count }}</tspan></text>
  </g>
</svg>
