<?xml version="1.0" encoding="UTF-8" standalone="no"?>
<svg
   xmlns:dc="http://purl.org/dc/elements/1.1/"
   xmlns:cc="http://creativecommons.org/ns#"
   xmlns:rdf="http://www.w3.org/1999/02/22-rdf-syntax-ns#"
   xmlns:svg="http://www.w3.org/2000/svg"
   xmlns="http://www.w3.org/2000/svg"
   xmlns:sodipodi="http://sodipodi.sourceforge.net/DTD/sodipodi-0.dtd"
   xmlns:inkscape="http://www.inkscape.org/namespaces/inkscape"
   width="4in"
   height="3in"
   viewBox="0 0 101.6 76.2"
   version="1.1"
   id="svg8"
   inkscape:version="1.0.2 (e86c870879, 2021-01-15)"
   sodipodi:docname="infographic_payees.svg">
  <defs
     id="defs2" />
  <sodipodi:namedview
     id="base"
     pagecolor="#ffffff"
     bordercolor="#666666"
     borderopacity="1.0"
     inkscape:pageopacity="0.0"
     inkscape:pageshadow="2"
     inkscape:zoom="2.8"
     inkscape:cx="276.47551"
     inkscape:cy="206.7014"
     inkscape:document-units="mm"
     inkscape:current-layer="layer1"
     inkscape:document-rotation="0"
     showgrid="false"
     units="in"
     width="40in"
     inkscape:window-width="1920"
     inkscape:window-height="2091"
     inkscape:window-x="0"
     inkscape:window-y="32"
     inkscape:window-maximized="0" />
  <metadata
     id="metadata5">
    <rdf:RDF>
      <cc:Work
         rdf:about="">
        <dc:format>image/svg+xml</dc:format>
        <dc:type
           rdf:resource="http://purl.org/dc/dcmitype/StillImage" />
        <dc:title />
      </cc:Work>
    </rdf:RDF>
  </metadata>
  <g
     inkscape:label="Layer 1"
     inkscape:groupmode="layer"
     id="layer1">
    <text
       xml:space="preserve"
       style="font-style:normal;font-weight:normal;font-size:15.4552px;line-height:1.25;font-family:sans-serif;fill:#000000;fill-opacity:1;stroke:none;stroke-width:0.386382"
       x="43.65493"
       y="20.636784"
       id="text84"
       transform="scale(0.99791765,1.0020867)"><tspan
         sodipodi:role="line"
         x="43.65493"
         y="20.636784"
         style="font-style:normal;font-variant:normal;font-weight:normal;font-stretch:normal;font-family:Ubuntu;-inkscape-font-specification:Ubuntu;stroke-width:0.386382"
         id="tspan86">Unique</tspan><tspan
         sodipodi:role="line"
         x="43.65493"
         y="40.693409"
         style="font-style:normal;font-variant:normal;font-weight:normal;font-stretch:normal;font-family:Ubuntu;-inkscape-font-specification:Ubuntu;stroke-width:0.386382"
         id="tspan93">Payees</tspan></text>
    <text
       xml:space="preserve"
       style="font-style:normal;font-weight:normal;font-size:15.5668px;line-height:1.25;font-family:sans-serif;fill:#000000;fill-opacity:1;stroke:none;stroke-width:0.389169"
       x="3.5759459"
       y="56.859638"
       id="text96"
       transform="scale(0.86265347,1.159214)"><tspan
         sodipodi:role="line"
         id="tspan94"
         x="3.5759459"
         y="56.859638"
         style="stroke-width:0.389169">{{ estma_payees }}</tspan></text>
    <g
       id="g89"
       transform="matrix(1.4824557,0,0,1.8025061,0.53179779,2.6095191)">
      <path
         d="M 0,0 H 24 V 24 H 0 Z"
         fill="none"
         id="path75" />
      <path
         d="M 18,17 H 6 v -2 h 12 z m 0,-4 H 6 V 11 H 18 Z M 18,9 H 6 V 7 H 18 Z M 3,22 4.5,20.5 6,22 7.5,20.5 9,22 10.5,20.5 12,22 13.5,20.5 15,22 16.5,20.5 18,22 19.5,20.5 21,22 V 2 L 19.5,3.5 18,2 16.5,3.5 15,2 13.5,3.5 12,2 10.5,3.5 9,2 7.5,3.5 6,2 4.5,3.5 3,2 Z"
         id="path77" />
    </g>
  </g>
</svg>
