<?xml version="1.0" encoding="UTF-8" standalone="no"?>
<svg
   xmlns:dc="http://purl.org/dc/elements/1.1/"
   xmlns:cc="http://creativecommons.org/ns#"
   xmlns:rdf="http://www.w3.org/1999/02/22-rdf-syntax-ns#"
   xmlns:svg="http://www.w3.org/2000/svg"
   xmlns="http://www.w3.org/2000/svg"
   xmlns:sodipodi="http://sodipodi.sourceforge.net/DTD/sodipodi-0.dtd"
   xmlns:inkscape="http://www.inkscape.org/namespaces/inkscape"
   width="4.5in"
   height="3in"
   viewBox="0 0 114.3 76.2"
   version="1.1"
   id="svg8"
   inkscape:version="1.0.2 (e86c870879, 2021-01-15)"
   sodipodi:docname="infographic_countries.svg">
  <defs
     id="defs2" />
  <sodipodi:namedview
     id="base"
     pagecolor="#ffffff"
     bordercolor="#666666"
     borderopacity="1.0"
     inkscape:pageopacity="0.0"
     inkscape:pageshadow="2"
     inkscape:zoom="2.8"
     inkscape:cx="276.47551"
     inkscape:cy="206.7014"
     inkscape:document-units="mm"
     inkscape:current-layer="layer1"
     inkscape:document-rotation="0"
     showgrid="false"
     units="in"
     width="40in"
     inkscape:window-width="1920"
     inkscape:window-height="2091"
     inkscape:window-x="0"
     inkscape:window-y="32"
     inkscape:window-maximized="0" />
  <metadata
     id="metadata5">
    <rdf:RDF>
      <cc:Work
         rdf:about="">
        <dc:format>image/svg+xml</dc:format>
        <dc:type
           rdf:resource="http://purl.org/dc/dcmitype/StillImage" />
        <dc:title></dc:title>
      </cc:Work>
    </rdf:RDF>
  </metadata>
  <g
     inkscape:label="Layer 1"
     inkscape:groupmode="layer"
     id="layer1">
    <text
       xml:space="preserve"
       style="font-style:normal;font-weight:normal;font-size:17.5729px;line-height:1.25;font-family:sans-serif;fill:#000000;fill-opacity:1;stroke:none;stroke-width:0.439326"
       x="46.547375"
       y="27.791855"
       id="text84"
       transform="scale(0.89082884,1.1225501)"><tspan
         sodipodi:role="line"
         x="46.547375"
         y="27.791855"
         style="font-style:normal;font-variant:normal;font-weight:normal;font-stretch:normal;font-family:Ubuntu;-inkscape-font-specification:Ubuntu;stroke-width:0.439326"
         id="tspan86">Countries</tspan></text>
    <text
       xml:space="preserve"
       style="font-style:normal;font-weight:normal;font-size:15.5668px;line-height:1.25;font-family:sans-serif;fill:#000000;fill-opacity:1;stroke:none;stroke-width:0.389169"
       x="3.5759459"
       y="56.859638"
       id="text96"
       transform="scale(0.86265347,1.159214)"><tspan
         sodipodi:role="line"
         id="tspan94"
         x="3.5759459"
         y="56.859638"
         style="stroke-width:0.389169">128</tspan></text>
    <g
       id="g71"
       transform="matrix(1.7715526,0,0,1.8015162,-0.83156313,3.4432459)">
      <path
         d="M 0,0 H 24 V 24 H 0 Z"
         fill="none"
         id="path57" />
      <path
         d="M 12,2 C 6.48,2 2,6.48 2,12 2,17.52 6.48,22 12,22 17.52,22 22,17.52 22,12 22,6.48 17.52,2 12,2 Z M 11,19.93 C 7.05,19.44 4,16.08 4,12 4,11.38 4.08,10.79 4.21,10.21 L 9,15 v 1 c 0,1.1 0.9,2 2,2 z m 6.9,-2.54 C 17.64,16.58 16.9,16 16,16 h -1 v -3 c 0,-0.55 -0.45,-1 -1,-1 H 8 v -2 h 2 c 0.55,0 1,-0.45 1,-1 V 7 h 2 c 1.1,0 2,-0.9 2,-2 V 4.59 c 2.93,1.19 5,4.06 5,7.41 0,2.08 -0.8,3.97 -2.1,5.39 z"
         id="path59" />
    </g>
  </g>
</svg>