<?xml version="1.0" encoding="UTF-8" standalone="no"?>
<svg
   xmlns:dc="http://purl.org/dc/elements/1.1/"
   xmlns:cc="http://creativecommons.org/ns#"
   xmlns:rdf="http://www.w3.org/1999/02/22-rdf-syntax-ns#"
   xmlns:svg="http://www.w3.org/2000/svg"
   xmlns="http://www.w3.org/2000/svg"
   xmlns:sodipodi="http://sodipodi.sourceforge.net/DTD/sodipodi-0.dtd"
   xmlns:inkscape="http://www.inkscape.org/namespaces/inkscape"
   width="6.5in"
   height="3in"
   viewBox="0 0 165.1 76.2"
   version="1.1"
   id="svg8"
   inkscape:version="1.0.2 (e86c870879, 2021-01-15)"
   sodipodi:docname="infographic_dollars.svg">
  <defs
     id="defs2" />
  <sodipodi:namedview
     id="base"
     pagecolor="#ffffff"
     bordercolor="#666666"
     borderopacity="1.0"
     inkscape:pageopacity="0.0"
     inkscape:pageshadow="2"
     inkscape:zoom="2.8"
     inkscape:cx="254.1952"
     inkscape:cy="206.7014"
     inkscape:document-units="mm"
     inkscape:current-layer="layer1"
     inkscape:document-rotation="0"
     showgrid="false"
     units="in"
     width="40in"
     inkscape:window-width="1920"
     inkscape:window-height="2091"
     inkscape:window-x="0"
     inkscape:window-y="32"
     inkscape:window-maximized="0" />
  <metadata
     id="metadata5">
    <rdf:RDF>
      <cc:Work
         rdf:about="">
        <dc:format>image/svg+xml</dc:format>
        <dc:type
           rdf:resource="http://purl.org/dc/dcmitype/StillImage" />
        <dc:title></dc:title>
      </cc:Work>
    </rdf:RDF>
  </metadata>
  <g
     inkscape:label="Layer 1"
     inkscape:groupmode="layer"
     id="layer1">
    <text
       xml:space="preserve"
       style="font-style:normal;font-weight:normal;font-size:15.4552px;line-height:1.25;font-family:sans-serif;fill:#000000;fill-opacity:1;stroke:none;stroke-width:0.386382"
       x="37.911575"
       y="21.327"
       id="text84"
       transform="scale(0.99791765,1.0020867)"><tspan
         sodipodi:role="line"
         x="37.911575"
         y="21.327"
         style="font-style:normal;font-variant:normal;font-weight:normal;font-stretch:normal;font-family:Ubuntu;-inkscape-font-specification:Ubuntu;stroke-width:0.386382"
         id="tspan86">Value of Payment</tspan><tspan
         sodipodi:role="line"
         x="37.911575"
         y="41.383625"
         style="font-style:normal;font-variant:normal;font-weight:normal;font-stretch:normal;font-family:Ubuntu;-inkscape-font-specification:Ubuntu;stroke-width:0.386382"
         id="tspan17">Reported</tspan></text>
    <text
       xml:space="preserve"
       style="font-style:normal;font-weight:normal;font-size:15.5668px;line-height:1.25;font-family:sans-serif;fill:#000000;fill-opacity:1;stroke:none;stroke-width:0.389169"
       x="3.5759459"
       y="56.859638"
       id="text96"
       transform="scale(0.86265347,1.159214)"><tspan
         sodipodi:role="line"
         id="tspan94"
         x="3.5759459"
         y="56.859638"
         style="stroke-width:0.389169"><<< estma_dollars >>></tspan></text>
    <g
       id="g93"
       transform="matrix(2.3629688,0,0,2.5457381,-7.3781855,-5.3093805)">
      <path
         d="M 0,0 H 24 V 24 H 0 Z"
         fill="none"
         id="path79" />
      <path
         d="M 11.8,10.9 C 9.53,10.31 8.8,9.7 8.8,8.75 8.8,7.66 9.81,6.9 11.5,6.9 13.28,6.9 13.94,7.75 14,9 h 2.21 C 16.14,7.28 15.09,5.7 13,5.19 V 3 H 10 V 5.16 C 8.06,5.58 6.5,6.84 6.5,8.77 c 0,2.31 1.91,3.46 4.7,4.13 2.5,0.6 3,1.48 3,2.41 0,0.69 -0.49,1.79 -2.7,1.79 -2.06,0 -2.87,-0.92 -2.98,-2.1 h -2.2 c 0.12,2.19 1.76,3.42 3.68,3.83 V 21 h 3 v -2.15 c 1.95,-0.37 3.5,-1.5 3.5,-3.55 0,-2.84 -2.43,-3.81 -4.7,-4.4 z"
         id="path81" />
    </g>
  </g>
</svg>
